<mxfile host="app.diagrams.net" modified="2024-03-19T13:01:33.099Z" agent="Mozilla/5.0 (Macintosh; Intel Mac OS X 10_15_7) AppleWebKit/537.36 (KHTML, like Gecko) Chrome/122.0.0.0 Safari/537.36" etag="tCF5nW1GeI9Mezwm3zz4" version="24.0.7" type="github">
  <diagram name="第 1 页" id="VBZ4mVqsqxVWigmQYTew">
    <mxGraphModel dx="3285" dy="2165" grid="1" gridSize="10" guides="1" tooltips="1" connect="1" arrows="1" fold="1" page="1" pageScale="1" pageWidth="827" pageHeight="1169" math="0" shadow="0">
      <root>
        <mxCell id="0" />
        <mxCell id="1" parent="0" />
        <mxCell id="CUMaAFuCnt0o6DWc_8Jj-3" value="大标题" style="rounded=0;whiteSpace=wrap;html=1;fontSize=64;" vertex="1" parent="1">
          <mxGeometry width="4130" height="110" as="geometry" />
        </mxCell>
        <mxCell id="CUMaAFuCnt0o6DWc_8Jj-4" value="" style="rounded=0;whiteSpace=wrap;html=1;" vertex="1" parent="1">
          <mxGeometry x="10" y="150" width="770" height="280" as="geometry" />
        </mxCell>
        <mxCell id="CUMaAFuCnt0o6DWc_8Jj-5" value="订票数量" style="text;html=1;align=center;verticalAlign=middle;whiteSpace=wrap;rounded=0;fontSize=32;" vertex="1" parent="1">
          <mxGeometry x="40" y="220" width="180" height="20" as="geometry" />
        </mxCell>
        <mxCell id="CUMaAFuCnt0o6DWc_8Jj-6" value="检票数量" style="text;html=1;align=center;verticalAlign=middle;whiteSpace=wrap;rounded=0;fontSize=32;" vertex="1" parent="1">
          <mxGeometry x="40" y="320" width="180" height="20" as="geometry" />
        </mxCell>
        <mxCell id="CUMaAFuCnt0o6DWc_8Jj-7" value="在院人数" style="text;html=1;align=center;verticalAlign=middle;whiteSpace=wrap;rounded=0;fontSize=32;" vertex="1" parent="1">
          <mxGeometry x="470" y="210" width="180" height="20" as="geometry" />
        </mxCell>
        <mxCell id="CUMaAFuCnt0o6DWc_8Jj-8" value="门票销售情况" style="text;html=1;align=center;verticalAlign=middle;whiteSpace=wrap;rounded=0;fontSize=32;" vertex="1" parent="1">
          <mxGeometry x="470" y="320" width="180" height="20" as="geometry" />
        </mxCell>
        <mxCell id="CUMaAFuCnt0o6DWc_8Jj-9" value="" style="rounded=0;whiteSpace=wrap;html=1;" vertex="1" parent="1">
          <mxGeometry y="490" width="1400" height="300" as="geometry" />
        </mxCell>
        <mxCell id="CUMaAFuCnt0o6DWc_8Jj-10" value="&lt;span style=&quot;text-align: start; font-size: 32px; font-family: DengXian;&quot;&gt;销售趋势分析&lt;/span&gt;&lt;span style=&quot;font-size: 32px; text-align: start;&quot;&gt;&lt;/span&gt;" style="text;html=1;align=center;verticalAlign=middle;whiteSpace=wrap;rounded=0;fontSize=32;" vertex="1" parent="1">
          <mxGeometry x="365" y="620" width="390" height="40" as="geometry" />
        </mxCell>
        <mxCell id="CUMaAFuCnt0o6DWc_8Jj-11" value="" style="rounded=0;whiteSpace=wrap;html=1;" vertex="1" parent="1">
          <mxGeometry x="15" y="840" width="815" height="320" as="geometry" />
        </mxCell>
        <mxCell id="CUMaAFuCnt0o6DWc_8Jj-12" value="游客画像" style="text;html=1;align=center;verticalAlign=middle;whiteSpace=wrap;rounded=0;fontSize=32;" vertex="1" parent="1">
          <mxGeometry x="80" y="920" width="300" height="50" as="geometry" />
        </mxCell>
        <mxCell id="CUMaAFuCnt0o6DWc_8Jj-13" value="游客同行人数" style="text;html=1;align=center;verticalAlign=middle;whiteSpace=wrap;rounded=0;fontSize=32;" vertex="1" parent="1">
          <mxGeometry x="15" y="1020" width="205" height="70" as="geometry" />
        </mxCell>
        <mxCell id="CUMaAFuCnt0o6DWc_8Jj-14" value="游客年龄段统计" style="text;html=1;align=center;verticalAlign=middle;whiteSpace=wrap;rounded=0;fontSize=32;" vertex="1" parent="1">
          <mxGeometry x="260" y="1020" width="230" height="70" as="geometry" />
        </mxCell>
        <mxCell id="CUMaAFuCnt0o6DWc_8Jj-15" value="游性别统计数" style="text;html=1;align=center;verticalAlign=middle;whiteSpace=wrap;rounded=0;fontSize=32;" vertex="1" parent="1">
          <mxGeometry x="520" y="1020" width="205" height="70" as="geometry" />
        </mxCell>
      </root>
    </mxGraphModel>
  </diagram>
</mxfile>
